<?xml version="1.0" encoding="UTF-8" standalone="no"?>
<!-- Created with Inkscape (http://www.inkscape.org/) -->

<svg
   xmlns:dc="http://purl.org/dc/elements/1.1/"
   xmlns:cc="http://creativecommons.org/ns#"
   xmlns:rdf="http://www.w3.org/1999/02/22-rdf-syntax-ns#"
   xmlns:svg="http://www.w3.org/2000/svg"
   xmlns="http://www.w3.org/2000/svg"
   xmlns:sodipodi="http://sodipodi.sourceforge.net/DTD/sodipodi-0.dtd"
   xmlns:inkscape="http://www.inkscape.org/namespaces/inkscape"
   width="210mm"
   height="297mm"
   viewBox="0 0 744.09448819 1052.3622047"
   id="svg2"
   version="1.1"
   inkscape:version="0.91 r13725"
   sodipodi:docname="donut.svg">
  <defs
     id="defs4" />
  <sodipodi:namedview
     id="base"
     pagecolor="#ffffff"
     bordercolor="#666666"
     borderopacity="1.0"
     inkscape:pageopacity="0.0"
     inkscape:pageshadow="2"
     inkscape:zoom="0.7071068"
     inkscape:cx="24.77224"
     inkscape:cy="555.70357"
     inkscape:document-units="px"
     inkscape:current-layer="layer1"
     showgrid="false"
     inkscape:window-width="1920"
     inkscape:window-height="1018"
     inkscape:window-x="-8"
     inkscape:window-y="-8"
     inkscape:window-maximized="1" />
  <metadata
     id="metadata7">
    <rdf:RDF>
      <cc:Work
         rdf:about="">
        <dc:format>image/svg+xml</dc:format>
        <dc:type
           rdf:resource="http://purl.org/dc/dcmitype/StillImage" />
        <dc:title />
      </cc:Work>
    </rdf:RDF>
  </metadata>
  <g
     inkscape:label="Layer 1"
     inkscape:groupmode="layer"
     id="layer1">
    <path
       style="fill:#c26313;opacity:0.98;fill-opacity:0.76785713"
       d="M 382 185.40625 A 250 239.97801 0 0 0 132 425.38477 A 250 239.97801 0 0 0 382 665.36328 A 250 239.97801 0 0 0 632 425.38477 A 250 239.97801 0 0 0 382 185.40625 z M 382 341.39258 A 87.5 83.992302 0 0 1 469.5 425.38477 A 87.5 83.992302 0 0 1 382 509.37695 A 87.5 83.992302 0 0 1 294.5 425.38477 A 87.5 83.992302 0 0 1 382 341.39258 z "
       id="path4138" />
    <path
       style="opacity:1;fill:#6c2204;fill-opacity:0.9881657"
       d="m 378.32422,157.41992 c -103.33312,-0.0821 -205.5454,61.61831 -249.54492,155.81641 -24.22789,51.42316 -34.318156,111.98204 -16.64258,167.01758 8.06214,19.67673 32.68093,33.1446 52.98242,23.78906 20.78881,-8.4769 30.91596,-31.66979 32.38086,-52.8457 2.53201,-16.30347 1.58275,-35.32244 12.51758,-48.57618 6.24937,1.19881 4.97195,9.81869 6.79481,14.4275 5.22276,24.94815 4.54513,53.19244 21.38683,74.03735 16.89296,21.66975 55.20731,22.77321 71.10547,-0.63086 14.49063,-20.7777 11.37978,-47.57477 12.73047,-71.4043 2.82154,-29.65626 32.61415,-51.97266 61.71093,-49.76953 26.36822,0.71166 51.78786,20.57431 55.91016,46.96875 3.90672,21.21721 0.79084,43.58454 8.90234,64.09766 5.9961,18.15595 18.93946,37.17814 39.11524,40.48437 16.43476,2.70773 34.51042,-6.64636 39.89293,-22.81975 12.74541,-27.61779 9.51098,-58.97559 14.25137,-88.22541 1.21405,-9.58226 3.13294,-20.10628 8.98851,-27.72437 13.80391,35.60183 8.21228,76.42251 25.13867,111.30273 6.73111,16.34683 24.15273,30.17767 42.51172,26.42774 14.27009,-1.95236 24.97917,-13.661 29.83985,-26.63281 10.53924,-23.90704 9.81574,-50.75536 10.61132,-76.32227 C 655.79807,319.80874 594.64485,227.12368 506.40265,186.48243 466.72138,167.08508 422.5084,156.93193 378.32422,157.41992 Z"
       id="path4275"
       inkscape:connector-curvature="0" />
    <path
       sodipodi:nodetypes="cccsssccccssscccc"
       inkscape:connector-curvature="0"
       id="path4171"
       d="m 378.93945,174.48047 c -88.74627,0.57859 -176.92654,48.30931 -222.17578,125.30664 -22.69152,37.66643 -34.65019,81.65236 -34.63672,125.57422 -0.16605,29.51108 7.06542,62.70918 28.34253,62.54105 49.13733,-0.38828 14.47959,-104.29816 62.939,-104.29816 39.99442,0 7.95689,105.0804 62.9081,105.0804 29.48919,0 28.45709,-40.67244 28.24983,-63.32329 -0.0642,-26.7052 15.14433,-53.56636 39.58789,-65.45313 12.29345,-6.55308 26.2616,-9.75609 40.17382,-9.55078 39.40948,-0.0581 76.49771,35.04093 75.27344,75.00391 1.43294,33.99353 7.46283,70.70808 31.13477,76.35487 49.98763,11.92422 12.75625,-141.69856 62.77539,-140.22248 37.03341,1.09288 15.10071,140.583 61.36914,139.96133 20.34094,-0.2733 27.35808,-42.33232 26.91602,-76.09372 0.10803,-54.94831 -18.57631,-109.90081 -53.33008,-152.65235 -45.93532,-57.91681 -117.49651,-94.03819 -191.22266,-97.74218 -6.09347,-0.36954 -12.19988,-0.52843 -18.30469,-0.48633 z"
       style="opacity:1;fill:#531a03;fill-opacity:0.98816568" />
    <ellipse
       style="fill:#2b0000"
       id="path3336"
       cx="-604.11328"
       cy="576.51428"
       rx="250"
       ry="249.45175" />
    <ellipse
       style="opacity:0.56000001;fill:#c87137"
       id="path4142"
       cx="-151"
       cy="625.36218"
       rx="1"
       ry="3" />
    <ellipse
       style="opacity:0.56000001;fill:#c87137"
       id="path4149"
       cx="-104.5"
       cy="479.86221"
       rx="1.5"
       ry="2.5" />
    <path
       style="color:#000000;font-style:normal;font-variant:normal;font-weight:normal;font-stretch:normal;font-size:medium;line-height:normal;font-family:sans-serif;text-indent:0;text-align:start;text-decoration:none;text-decoration-line:none;text-decoration-style:solid;text-decoration-color:#000000;letter-spacing:normal;word-spacing:normal;text-transform:none;direction:ltr;block-progression:tb;writing-mode:lr-tb;baseline-shift:baseline;text-anchor:start;white-space:normal;clip-rule:nonzero;display:inline;overflow:visible;visibility:visible;opacity:1;isolation:auto;mix-blend-mode:normal;color-interpolation:sRGB;color-interpolation-filters:linearRGB;solid-color:#000000;solid-opacity:1;fill:#7e3e08;fill-opacity:1;fill-rule:nonzero;stroke:none;stroke-width:20;stroke-linecap:round;stroke-linejoin:round;stroke-miterlimit:4;stroke-dasharray:none;stroke-dashoffset:0;stroke-opacity:1;color-rendering:auto;image-rendering:auto;shape-rendering:auto;text-rendering:auto;enable-background:accumulate"
       d="m -609.31507,302.45303 c -93.14734,0.60865 -185.11568,54.88057 -232.82618,136.00808 -23.8838,39.66754 -36.40693,85.78249 -36.39843,131.94531 -0.0857,15.79035 1.60317,32.49873 6.91015,46.78125 2.65588,7.14768 6.23979,13.82666 11.8086,19.2168 5.5688,5.39015 13.64556,9.13807 22.2207,9.07031 16.70112,-0.13197 29.43968,-11.39348 35.04492,-23.82226 5.60524,-12.42879 7.19757,-26.26389 8.9668,-39.28906 1.76923,-13.02518 3.71906,-25.25029 6.88281,-32.36719 3.16375,-7.1169 4.29768,-8.82031 11.94531,-8.82031 2.26246,0 2.42262,0.23235 3.375,1.12695 0.95239,0.8946 2.47072,3.15597 3.8125,6.95508 2.68357,7.59821 4.31942,20.35315 6.29102,33.77539 1.97159,13.42224 4.23164,27.69966 11.05664,40.26953 6.825,12.56987 17.82296,23.66218 35.54462,23.66218 10.24569,0 22.48497,-4.83028 28.67999,-11.20906 6.19501,-6.37877 9.46262,-14.20992 11.50195,-22.00195 4.06993,-15.55071 3.5008,-32.14633 3.39649,-43.34961 -0.0528,-21.93928 12.93765,-44.64198 32.55468,-54.18164 0.13932,-0.0677 0.27737,-0.13807 0.41407,-0.21094 10.31706,-5.49955 22.23854,-8.25917 34.10937,-8.08398 0.0671,10e-4 0.13411,0.002 0.20117,0.002 31.97608,-0.0471 63.74254,30.10502 62.76172,62.1211 -0.009,0.30335 -0.007,0.60693 0.006,0.91015 0.73957,17.54471 2.54081,36.0559 7.8418,52.1836 5.30099,16.12769 15.33032,31.61616 32.88086,35.80273 9.02437,2.1527 18.90985,0.31803 25.65429,-5.01758 6.74445,-5.3356 10.35318,-12.58822 12.94336,-20.20312 5.18037,-15.22981 6.53329,-33.67121 8.13086,-52.04883 1.59757,-18.37762 3.35376,-36.61829 7.00977,-48.46094 1.828,-5.92132 4.13236,-10.00949 5.95508,-11.91211 1.82272,-1.90262 2.53311,-2.33504 5.61328,-2.24414 0.69257,0.0204 0.39317,-0.37899 1.85937,1.51367 1.46621,1.89266 3.52485,6.13708 5.22071,11.92383 3.39171,11.5735 5.64867,28.8346 8.13281,46.4375 2.48414,17.6029 5.1381,35.57118 10.9668,50.64649 2.91434,7.53765 5.22778,15.23834 11.07016,20.8653 5.84238,5.62696 15.73991,15.76892 24.6564,15.64911 9.38213,-0.12604 18.20798,-6.30674 23.25008,-12.78131 5.0421,-6.47457 7.45336,-20.4904 9.84757,-28.82685 4.77917,-16.6407 6.37224,-34.8258 6.14649,-52.6132 0.0945,-57.75065 -19.45573,-116.84213 -56.0918,-161.93173 -48.27443,-60.82164 -122.91652,-103.07262 -200.24414,-106.98269 -6.36544,-0.38504 -12.73606,-0.55161 -19.09961,-0.50781 z m 0.16796,29.59988 0.004,0 c 5.83045,-0.0402 11.65699,0.11079 17.46289,0.46289 0.043,0.003 0.0859,0.005 0.12891,0.008 70.06356,3.51998 138.47657,38.07817 182.05664,93.02539 0.031,0.0392 0.0623,0.0783 0.0937,0.11719 32.82982,40.38484 50.63172,92.64387 50.5293,144.74219 1.7e-4,0.0632 8.2e-4,0.1263 0.002,0.18945 0.2088,15.94695 -1.48677,34.12497 -5.18164,46.99023 -1.84744,6.43264 -4.26931,11.45855 -6.25,14.00196 -1.98069,2.5434 -2.36596,2.42886 -3.1543,2.43945 -2.65062,0.0356 -3.60359,-0.40824 -5.5625,-2.29492 -1.95891,-1.88668 -4.39711,-5.69877 -6.51172,-11.16797 -4.22921,-10.9384 -7.08192,-27.79452 -9.52734,-45.12305 -2.44542,-17.32853 -4.541,-35.10576 -8.89844,-49.97461 -2.17872,-7.43442 -4.84374,-14.26261 -9.44727,-20.20507 -4.60351,-5.94247 -12.31898,-10.93863 -20.88476,-11.19141 -9.42462,-0.27812 -18.49387,3.76798 -24.4043,9.9375 -5.91043,6.16952 -9.29251,13.74511 -11.78906,21.83203 -4.99311,16.17384 -6.43386,35.31884 -8.0293,53.67188 -1.59543,18.35303 -3.4317,35.98746 -6.89258,46.16211 -1.73043,5.08732 -3.80431,7.86898 -4.7871,8.64648 -0.9828,0.7775 -0.86927,1.13499 -4.3418,0.30664 -6.1214,-1.46022 -10.94147,-7.15135 -14.93164,-19.29102 -3.96542,-12.06434 -5.89523,-28.77355 -6.59961,-45.125 1.09348,-47.60215 -41.07998,-87.28015 -87.67969,-87.27734 -15.8402,-0.21989 -31.73136,3.39762 -45.91797,10.9082 -29.15583,14.2754 -46.5169,45.21598 -46.4414,76.61914 -10e-5,0.0286 -10e-5,0.0573 0,0.0859 0.10474,11.44681 0.14373,26.46014 -2.58203,36.875 -1.36289,5.20744 -3.35118,8.96087 -5.25,10.91602 -1.89883,1.95515 -7.66172,10.12509 -12.16061,10.12509 -9.75395,0 -8.28689,-9.95918 -12.15971,-17.09189 -3.87281,-7.13271 -6.40574,-19.12478 -8.29297,-31.97266 -1.88722,-12.84786 -3.17611,-26.36439 -7.45117,-38.46874 -2.13753,-6.05219 -5.10609,-11.99958 -10.27148,-16.85157 -5.1654,-4.85198 -12.75408,-7.90429 -20.49024,-7.90429 -16.58207,0 -29.28834,11.28768 -34.79101,23.66601 -5.50268,12.37834 -7.04462,26.15542 -8.81055,39.15625 -1.76592,13.00083 -3.75176,25.21343 -6.98242,32.37695 -3.23067,7.16352 -4.58558,9.03744 -12.45313,9.09961 -2.06341,0.0163 -2.87063,-0.32377 -4.63671,-2.0332 -1.7661,-1.70943 -3.9689,-5.14122 -5.75977,-9.96094 -3.58175,-9.63943 -5.42479,-24.26835 -5.34766,-37.97656 7e-5,-0.0247 7e-5,-0.0495 0,-0.0742 -0.0128,-41.65037 11.37018,-83.47442 32.84375,-119.11914 0.0237,-0.0389 0.0471,-0.078 0.0703,-0.11719 42.7984,-72.82692 127.16187,-118.5909 211.48046,-119.14062 z"
       id="path4152"
       inkscape:connector-curvature="0"
       sodipodi:nodetypes="cccssssssssssssssccsccccssssssscsssssssscccccccccccccsssssssssssssssscccccsssssssssssssscccccc" />
    <path
       style="opacity:0.98000004;fill:#faf9f8;fill-opacity:0.58333331"
       d="M 550.80664 382.0625 C 544.95107 389.68059 543.03241 400.20485 541.81836 409.78711 C 537.07797 439.03693 540.31182 470.39393 527.56641 498.01172 C 522.31339 513.796 504.9716 523.07913 488.86328 521 C 463.04572 548.77967 427.01494 567.14402 388.77148 567.91406 C 339.84402 570.01496 290.90359 545.52577 262.22656 506.17188 C 252.83223 503.82731 244.17386 498.75002 238.19922 491.08594 C 221.35752 470.24103 222.03526 441.99698 216.8125 417.04883 C 214.98964 412.44002 216.26695 403.8199 210.01758 402.62109 C 199.08275 415.87483 200.03201 434.8938 197.5 451.19727 C 197.17298 455.92453 196.4099 460.75199 195.19727 465.49414 C 206.07521 510.58161 233.96992 551.74373 273.96094 575.89648 C 335.64103 615.4252 419.92746 618.37385 483.11719 580.39453 C 523.76165 556.72309 555.1107 516.27889 567.94336 470.94336 C 560.51561 441.73847 561.74152 410.26477 550.80664 382.0625 z "
       id="path4303" />
    <path
       style="opacity:0.98000004;fill:#faf9f8;fill-opacity:0.58333331"
       d="M 379.46289 243.25977 C 298.1785 242.89172 218.29649 299.67557 196.12305 378.91602 C 195.98816 379.39929 195.8646 379.88488 195.73438 380.36914 C 208.06161 372.73909 226.43358 373.90582 234.54492 386.91211 C 236.62244 390.14184 238.27679 393.50864 239.63086 396.97266 C 246.68877 364.83242 264.63725 334.91994 290.52734 314.50586 C 317.24343 292.92856 351.59689 283.05401 385.63086 283.13086 C 446.42942 282.83869 502.71661 327.28806 521.39453 384.21484 C 523.65672 376.72207 526.83751 369.57521 531.52539 363.12305 C 537.84705 355.645 549.01394 351.86366 558.46484 354.22461 C 539.98417 313.26816 506.52341 278.9348 464.83594 261.41992 C 437.94025 249.21134 408.9361 242.98753 379.46289 243.25977 z "
       id="path4363" />
    <ellipse
       style="opacity:0.83499995;fill:#d40000;fill-opacity:0.58333333;stroke:#ffffff;stroke-width:49;stroke-linecap:round;stroke-linejoin:round;stroke-miterlimit:4;stroke-dasharray:none;stroke-opacity:0.10714285"
       id="path4379"
       cx="-847.11395"
       cy="126.75945"
       rx="80.610168"
       ry="47.376152" />
    <g
       id="g4400"
       transform="matrix(0.34518108,-0.46625909,0.49136209,0.36093223,400.45044,-334.97101)"
       style="stroke:none">
      <path
         id="path4381"
         d="m -625.78906,534.79492 a 70.059441,65.019188 0 0 0 -70.06055,65.01953 70.059441,65.019188 0 0 0 25.07031,49.83008 98.287842,91.216774 0 0 0 -50.46875,79.57031 98.287842,91.216774 0 0 0 56.53516,82.45704 70.059441,65.019188 0 0 0 -26.89258,51.18554 70.059441,65.019188 0 0 0 70.05859,65.01953 70.059441,65.019188 0 0 0 70.0586,-65.01953 70.059441,65.019188 0 0 0 -27.99219,-51.89258 98.287842,91.216774 0 0 0 54.80664,-81.75 98.287842,91.216774 0 0 0 -54.04492,-81.34179 70.059441,65.019188 0 0 0 22.98828,-48.0586 70.059441,65.019188 0 0 0 -70.05859,-65.01953 z"
         style="opacity:0.83499995;fill:#d40000;fill-opacity:0.58333333;stroke:none;stroke-width:49;stroke-linecap:round;stroke-linejoin:round;stroke-miterlimit:4;stroke-dasharray:none;stroke-opacity:0.10714285"
         inkscape:connector-curvature="0" />
      <path
         inkscape:connector-curvature="0"
         style="opacity:0.83499995;fill:#00ff00;fill-opacity:0.58333333;stroke:none;stroke-width:52.84691238;stroke-linecap:round;stroke-linejoin:round;stroke-miterlimit:4;stroke-dasharray:none;stroke-opacity:0.10714285"
         d="m -645.37495,536.71838 a 82.297164,64.382876 0 0 0 -82.29846,64.38321 82.297164,64.382876 0 0 0 29.44949,49.34241 115.4564,90.324078 0 0 0 -59.28444,78.7916 115.4564,90.324078 0 0 0 66.41051,81.65007 82.297164,64.382876 0 0 0 -31.59008,50.68461 82.297164,64.382876 0 0 0 82.29617,64.38321 82.297164,64.382876 0 0 0 82.29618,-64.38321 82.297164,64.382876 0 0 0 -32.88177,-51.38473 115.4564,90.324078 0 0 0 64.38006,-80.94995 115.4564,90.324078 0 0 0 -63.48528,-80.54574 82.297164,64.382876 0 0 0 27.00379,-47.58827 82.297164,64.382876 0 0 0 -82.29617,-64.38321 z"
         id="path4392" />
      <path
         id="path4394"
         d="m -662.06247,538.24402 a 92.802341,63.878169 0 0 0 -92.8038,63.8785 92.802341,63.878169 0 0 0 33.20869,48.9556 130.19433,89.616014 0 0 0 -66.85206,78.17394 130.19433,89.616014 0 0 0 74.88777,81.01001 92.802341,63.878169 0 0 0 -35.62253,50.28728 92.802341,63.878169 0 0 0 92.80122,63.8785 92.802341,63.878169 0 0 0 92.80123,-63.8785 92.802341,63.878169 0 0 0 -37.07911,-50.98191 130.19433,89.616014 0 0 0 72.59813,-80.31538 130.19433,89.616014 0 0 0 -71.58913,-79.91433 92.802341,63.878169 0 0 0 30.45081,-47.21521 92.802341,63.878169 0 0 0 -92.80122,-63.8785 z"
         style="opacity:0.83499995;fill:#800080;fill-opacity:0.58333333;stroke:none;stroke-width:55.89818192;stroke-linecap:round;stroke-linejoin:round;stroke-miterlimit:4;stroke-dasharray:none;stroke-opacity:0.10714285"
         inkscape:connector-curvature="0" />
      <path
         inkscape:connector-curvature="0"
         style="opacity:0.83499995;fill:#00ff00;fill-opacity:0.58333333;stroke:none;stroke-width:59.01754761;stroke-linecap:round;stroke-linejoin:round;stroke-miterlimit:4;stroke-dasharray:none;stroke-opacity:0.10714285"
         d="m -678.76074,541.66802 a 104.29131,63.362199 0 0 0 -104.29294,63.36253 104.29131,63.362199 0 0 0 37.31993,48.56017 146.31244,88.892149 0 0 0 -75.12837,77.54249 146.31244,88.892149 0 0 0 84.15891,80.35566 104.29131,63.362199 0 0 0 -40.03261,49.88109 104.29131,63.362199 0 0 0 104.29004,63.36253 104.29131,63.362199 0 0 0 104.29006,-63.36253 104.29131,63.362199 0 0 0 -41.66952,-50.57011 146.31244,88.892149 0 0 0 81.58581,-79.66664 146.31244,88.892149 0 0 0 -80.45189,-79.26883 104.29131,63.362199 0 0 0 34.22063,-46.83383 104.29131,63.362199 0 0 0 -104.29005,-63.36253 z"
         id="path4398" />
    </g>
  </g>
</svg>
